<svg width="32" height="32" viewBox="0 0 32 32" fill="none" xmlns="http://www.w3.org/2000/svg">
<path fill-rule="evenodd" clip-rule="evenodd" d="M0 0.836601C0 0.374559 0.318375 0 0.711111 0H31.2889C31.6816 0 32 0.374559 32 0.836601V22.5882C32 23.0503 31.6816 23.4248 31.2889 23.4248H22.8997L16.7121 31.7154C16.5711 31.9043 16.3654 32.0086 16.1518 31.9994C15.9382 31.9902 15.7395 31.8685 15.6106 31.668L10.3128 23.4248H0.711111C0.318375 23.4248 0 23.0503 0 22.5882V0.836601ZM1.42222 1.6732V21.7516H10.6667C10.8895 21.7516 11.0995 21.8745 11.2339 22.0837L16.2189 29.8403L22.0434 22.0362C22.1784 21.8553 22.3731 21.7516 22.5778 21.7516H30.5778V1.6732H1.42222Z" fill="url(#paint0_linear_75_966)"/>
<path fill-rule="evenodd" clip-rule="evenodd" d="M4.62109 6.69305C4.62109 6.231 4.93947 5.85645 5.3322 5.85645H15.9989C16.3916 5.85645 16.71 6.231 16.71 6.69305C16.71 7.15509 16.3916 7.52965 15.9989 7.52965H5.3322C4.93947 7.52965 4.62109 7.15509 4.62109 6.69305ZM4.62109 11.5035C4.62109 11.0415 4.93947 10.6669 5.3322 10.6669H11.91C12.3027 10.6669 12.6211 11.0415 12.6211 11.5035C12.6211 11.9655 12.3027 12.3401 11.91 12.3401H5.3322C4.93947 12.3401 4.62109 11.9655 4.62109 11.5035Z" fill="url(#paint1_linear_75_966)"/>
<defs>
<linearGradient id="paint0_linear_75_966" x1="16" y1="0" x2="16" y2="32" gradientUnits="userSpaceOnUse">
<stop stop-color="#0069CD"/>
<stop offset="1" stop-color="#6002E0"/>
</linearGradient>
<linearGradient id="paint1_linear_75_966" x1="10.6655" y1="5.85645" x2="10.6655" y2="12.3401" gradientUnits="userSpaceOnUse">
<stop stop-color="#0069CD"/>
<stop offset="1" stop-color="#6002E0"/>
</linearGradient>
</defs>
</svg>
