<svg width="125" height="125" viewBox="0 0 125 125" fill="none" xmlns="http://www.w3.org/2000/svg">
<rect width="125" height="125" rx="57.8906" fill="url(#paint0_linear_140_190)"/>
<path d="M108.152 59.8145C108.152 80.7139 87.7122 97.6562 62.498 97.6562C59.3074 97.6562 56.1933 97.385 53.1873 96.8687C50.9452 96.4836 48.6598 96.5116 46.7172 97.6954C43.6657 99.555 39.3179 102.461 33.924 102.955C33.2889 103.013 32.9312 102.288 33.3174 101.78C37.0403 96.8885 39.368 92.4878 37.7178 91.6022C25.156 84.8604 16.8438 73.142 16.8438 59.8145C16.8438 38.915 37.2839 21.9727 62.498 21.9727C87.7122 21.9727 108.152 38.915 108.152 59.8145Z" fill="white"/>
<defs>
<linearGradient id="paint0_linear_140_190" x1="62.5" y1="0" x2="62.5" y2="125" gradientUnits="userSpaceOnUse">
<stop offset="0.9999" stop-color="#0E0E0E"/>
<stop offset="1" stop-color="#0EBC29"/>
</linearGradient>
</defs>
</svg>
