<svg width="22" height="20" viewBox="0 0 22 20" fill="none" xmlns="http://www.w3.org/2000/svg">
<path d="M18.612 3.41452L17.5411 4.46483L17.5416 4.46533L18.612 3.41452ZM15.2623 2V3.5V2ZM11.9126 3.41452L12.9832 4.46508L12.9835 4.46483L11.9126 3.41452ZM10.9998 4.34476L9.92911 5.39532C10.2112 5.6828 10.597 5.84476 10.9998 5.84476C11.4025 5.84476 11.7884 5.6828 12.0704 5.39532L10.9998 4.34476ZM10.087 3.41452L9.01633 4.46508L9.01633 4.46508L10.087 3.41452ZM3.38751 10.2421L2.31685 11.2927H2.31685L3.38751 10.2421ZM10.9998 18L9.92911 19.0506C10.2112 19.338 10.597 19.5 10.9998 19.5C11.4025 19.5 11.7884 19.338 12.0704 19.0506L10.9998 18ZM18.612 10.2421L17.5416 9.19132L17.5414 9.19157L18.612 10.2421ZM19.6829 2.3642C19.1052 1.77509 18.4176 1.30621 17.6588 0.985782L16.4917 3.74948C16.8824 3.91446 17.2393 4.15706 17.5411 4.46483L19.6829 2.3642ZM17.6588 0.985782C16.8999 0.665324 16.0855 0.5 15.2623 0.5V3.5C15.6834 3.5 16.1011 3.58452 16.4917 3.74948L17.6588 0.985782ZM15.2623 0.5C14.4391 0.5 13.6247 0.665324 12.8658 0.985782L14.0329 3.74948C14.4235 3.58452 14.8412 3.5 15.2623 3.5V0.5ZM12.8658 0.985782C12.107 1.30621 11.4194 1.77509 10.8416 2.3642L12.9835 4.46483C13.2853 4.15706 13.6422 3.91446 14.0329 3.74948L12.8658 0.985782ZM10.8419 2.36395L9.92911 3.29419L12.0704 5.39532L12.9832 4.46508L10.8419 2.36395ZM12.0704 3.29419L11.1576 2.36395L9.01633 4.46508L9.92911 5.39532L12.0704 3.29419ZM11.1576 2.36395C9.99022 1.17419 8.40074 0.500469 6.73725 0.500469V3.50047C7.58655 3.50047 8.40694 3.84404 9.01633 4.46508L11.1576 2.36395ZM6.73725 0.500469C5.07376 0.500469 3.48428 1.17419 2.31685 2.36395L4.45817 4.46508C5.06755 3.84404 5.88795 3.50047 6.73725 3.50047V0.500469ZM2.31685 2.36395C1.15037 3.55274 0.5 5.15915 0.5 6.82833H3.5C3.5 5.93665 3.84784 5.08709 4.45817 4.46508L2.31685 2.36395ZM0.5 6.82833C0.5 8.4975 1.15037 10.1039 2.31685 11.2927L4.45817 9.19157C3.84784 8.56957 3.5 7.72 3.5 6.82833H0.5ZM19.6824 11.293C20.2605 10.7042 20.7175 10.0066 21.0288 9.24091L18.2497 8.111C18.0847 8.51679 17.8437 8.88364 17.5416 9.19132L19.6824 11.293ZM21.0288 9.24091C21.3401 8.47523 21.5 7.65551 21.5 6.82833H18.5C18.5 7.26923 18.4147 7.70517 18.2497 8.111L21.0288 9.24091ZM21.5 6.82833C21.5 6.00114 21.3401 5.18142 21.0288 4.41574L18.2497 5.54565C18.4147 5.95148 18.5 6.38742 18.5 6.82833H21.5ZM21.0288 4.41574C20.7175 3.65002 20.2605 2.95248 19.6824 2.3637L17.5416 4.46533C17.8437 4.77301 18.0847 5.13987 18.2497 5.54565L21.0288 4.41574ZM2.31685 11.2927L9.92911 19.0506L12.0704 16.9494L4.45817 9.19157L2.31685 11.2927ZM12.0704 19.0506L19.6827 11.2927L17.5414 9.19157L9.92911 16.9494L12.0704 19.0506Z" fill="#C0C0C0"/>
</svg>
