<svg width="26" height="18" viewBox="0 0 26 18" fill="none" xmlns="http://www.w3.org/2000/svg">
<g clip-path="url(#clip0_3_190)">
<path d="M18.1769 14.4015H13.5351C13.0306 15.3617 12.0379 16.171 10.7324 16.6863C9.42702 17.2016 7.89289 17.3898 6.40122 17.2176C4.90955 17.0453 3.55637 16.5238 2.58086 15.7452C1.60535 14.9665 1.07031 13.9809 1.07031 12.9624C1.07031 11.944 1.60535 10.9584 2.58086 10.1797C3.55637 9.40107 4.90955 8.87954 6.40122 8.70733C7.89289 8.53511 9.42702 8.72328 10.7324 9.23859C12.0379 9.7539 13.0306 10.5632 13.5351 11.5233H24.5927V14.4015H22.4541V17.2797H18.1769V14.4015ZM7.48385 14.4015C8.05105 14.4015 8.59501 14.2499 8.99608 13.98C9.39715 13.7102 9.62247 13.3441 9.62247 12.9624C9.62247 12.5808 9.39715 12.2147 8.99608 11.9448C8.59501 11.675 8.05105 11.5233 7.48385 11.5233C6.91666 11.5233 6.37269 11.675 5.97163 11.9448C5.57056 12.2147 5.34524 12.5808 5.34524 12.9624C5.34524 13.3441 5.57056 13.7102 5.97163 13.98C6.37269 14.2499 6.91666 14.4015 7.48385 14.4015V14.4015Z" fill="#4F4F4F"/>
</g>
<defs>
<clipPath id="clip0_3_190">
<rect width="25.6633" height="17.2692" fill="white"/>
</clipPath>
</defs>
</svg>
