<svg width="24" height="24" viewBox="0 0 24 24" fill="none" xmlns="http://www.w3.org/2000/svg">
<path fill-rule="evenodd" clip-rule="evenodd" d="M15.1844 2.36802C15.6751 1.87733 16.4707 1.87733 16.9613 2.36802L21.632 7.03865C22.1227 7.52935 22.1227 8.32492 21.632 8.81562L8.4476 22H2V15.5524L15.1844 2.36802ZM16.0729 4.32269L13.8592 6.53632L17.4637 10.1408L19.6773 7.92714L16.0729 4.32269ZM4.01041 16.3851L12.5363 7.85921L16.1408 11.4637L7.61486 19.9896H4.01041V16.3851Z" fill="#191B23"/>
<path d="M13 20C12.4477 20 12 20.4477 12 21C12 21.5523 12.4477 22 13 22H21C21.5523 22 22 21.5523 22 21C22 20.4477 21.5523 20 21 20H13Z" fill="#191B23"/>
</svg>
