<svg width="48" height="48" viewBox="0 0 48 48" fill="none" xmlns="http://www.w3.org/2000/svg">
<path d="M24.0013 0.666748C11.1213 0.666748 0.667969 11.1201 0.667969 24.0001C0.667969 36.8801 11.1213 47.3334 24.0013 47.3334C36.8813 47.3334 47.3346 36.8801 47.3346 24.0001C47.3346 11.1201 36.8813 0.666748 24.0013 0.666748ZM24.0013 7.66675C27.8746 7.66675 31.0013 10.7934 31.0013 14.6667C31.0013 18.5401 27.8746 21.6667 24.0013 21.6667C20.128 21.6667 17.0013 18.5401 17.0013 14.6667C17.0013 10.7934 20.128 7.66675 24.0013 7.66675ZM24.0013 40.8001C18.168 40.8001 13.0113 37.8134 10.0013 33.2867C10.0713 28.6434 19.3346 26.1001 24.0013 26.1001C28.6446 26.1001 37.9313 28.6434 38.0013 33.2867C34.9913 37.8134 29.8346 40.8001 24.0013 40.8001Z" fill="#BDBDBD"/>
</svg>
