<svg width="24" height="24" viewBox="0 0 24 24" fill="none" xmlns="http://www.w3.org/2000/svg">
<path d="M9 18V8H11V18H9Z" fill="#191B23"/>
<path d="M15 18V8H13V18H15Z" fill="#191B23"/>
<path fill-rule="evenodd" clip-rule="evenodd" d="M10 1C9.44772 1 9 1.44772 9 2V3H3C2.44772 3 2 3.44772 2 4C2 4.55228 2.44772 5 3 5L4 5V21C4 22.1046 4.89543 23 6 23H18C19.1046 23 20 22.1046 20 21V5H21C21.5523 5 22 4.55228 22 4C22 3.44772 21.5523 3 21 3H15V2C15 1.44772 14.5523 1 14 1H10ZM6 5L18 5V21H6V5Z" fill="#191B23"/>
</svg>
